<?xml version="1.0" encoding="utf-8"?>
<!-- Generator: Adobe Illustrator 28.0.0, SVG Export Plug-In . SVG Version: 6.00 Build 0)  -->
<svg version="1.1" id="Camada_1" xmlns="http://www.w3.org/2000/svg" xmlns:xlink="http://www.w3.org/1999/xlink" x="0px" y="0px"
	 viewBox="0 0 24 24" style="enable-background:new 0 0 24 24;" xml:space="preserve">
<style type="text/css">
	.st0{fill:url(#SVGID_1_);}
	.st1{fill:url(#SVGID_00000047738503863004019220000005209108138017703103_);}
	.st2{fill:url(#SVGID_00000014601799477861611300000014533247684693049509_);}
	.st3{fill:url(#SVGID_00000090284068547171755400000018281083712712089534_);}
	.st4{fill:#005BEA;enable-background:new    ;}
	.st5{fill:#00C6FB;enable-background:new    ;}
</style>
<linearGradient id="SVGID_1_" gradientUnits="userSpaceOnUse" x1="11.995" y1="21.5" x2="11.995" y2="4.855" gradientTransform="matrix(1 0 0 -1 0 26)">
	<stop  offset="0" style="stop-color:#00C6FB"/>
	<stop  offset="1" style="stop-color:#005BEA"/>
</linearGradient>
<path class="st0" d="M17.5,4.5c-1.9,0-4.1,0.4-5.5,1.5c-1.4-1.1-3.6-1.5-5.5-1.5c-1.4,0-3,0.2-4.3,0.8C1.5,5.6,1,6.3,1,7.1v11.3
	c0,1.3,1.2,2.3,2.5,1.9c1-0.2,2-0.4,3-0.4c1.6,0,3.2,0.3,4.6,0.9c0.6,0.3,1.3,0.3,1.9,0c1.3-0.7,3-0.9,4.6-0.9c1,0,2,0.1,3,0.4
	c1.3,0.3,2.5-0.6,2.5-1.9V7.1c0-0.8-0.5-1.5-1.2-1.8C20.5,4.7,19,4.5,17.5,4.5z M21,17.2c0,0.6-0.6,1.1-1.2,1
	C19,18.1,18.3,18,17.5,18c-1.7,0-4.1,0.6-5.5,1.5V8c1.4-0.8,3.8-1.5,5.5-1.5c0.9,0,1.8,0.1,2.7,0.3c0.5,0.1,0.8,0.5,0.8,1V17.2z"/>
<linearGradient id="SVGID_00000010275194586050555880000005293783757655976832_" gradientUnits="userSpaceOnUse" x1="16.5039" y1="16.9901" x2="16.5039" y2="14.99" gradientTransform="matrix(1 0 0 -1 0 26)">
	<stop  offset="0" style="stop-color:#00C6FB"/>
	<stop  offset="1" style="stop-color:#005BEA"/>
</linearGradient>
<path style="fill:url(#SVGID_00000010275194586050555880000005293783757655976832_);" d="M14,11c-0.3,0-0.6-0.2-0.7-0.5
	c-0.1-0.4,0.1-0.8,0.5-0.9c1.5-0.5,3.5-0.7,5.4-0.4c0.4,0,0.7,0.4,0.7,0.8c0,0.4-0.4,0.7-0.8,0.7c-1.6-0.2-3.4,0-4.7,0.4
	C14.1,11,14,11,14,11z"/>
<linearGradient id="SVGID_00000157297579244569054720000001527372383875082658_" gradientUnits="userSpaceOnUse" x1="16.5039" y1="14.3301" x2="16.5039" y2="12.33" gradientTransform="matrix(1 0 0 -1 0 26)">
	<stop  offset="0" style="stop-color:#00C6FB"/>
	<stop  offset="1" style="stop-color:#005BEA"/>
</linearGradient>
<path style="fill:url(#SVGID_00000157297579244569054720000001527372383875082658_);" d="M14,13.7c-0.3,0-0.6-0.2-0.7-0.5
	c-0.1-0.4,0.1-0.8,0.5-0.9c1.5-0.5,3.5-0.7,5.4-0.4c0.4,0.1,0.7,0.4,0.7,0.8c0,0.4-0.4,0.7-0.8,0.7c-1.6-0.2-3.4,0-4.7,0.4
	C14.1,13.7,14,13.7,14,13.7z"/>
<linearGradient id="SVGID_00000171717066781672697930000002536484620851864734_" gradientUnits="userSpaceOnUse" x1="16.5039" y1="11.6701" x2="16.5039" y2="9.67" gradientTransform="matrix(1 0 0 -1 0 26)">
	<stop  offset="0" style="stop-color:#00C6FB"/>
	<stop  offset="1" style="stop-color:#005BEA"/>
</linearGradient>
<path style="fill:url(#SVGID_00000171717066781672697930000002536484620851864734_);" d="M14,16.3c-0.3,0-0.6-0.2-0.7-0.5
	c-0.1-0.4,0.1-0.8,0.5-0.9c1.5-0.5,3.5-0.7,5.4-0.4c0.4,0.1,0.7,0.4,0.7,0.8c0,0.4-0.4,0.7-0.8,0.7c-1.6-0.2-3.4,0-4.7,0.4
	C14.1,16.3,14,16.3,14,16.3z"/>
<rect x="-8.6" y="51.5" transform="matrix(0.7071 -0.7071 0.7071 0.7071 -36.5933 19.1038)" class="st4" width="26.6" height="4.4"/>
<rect x="-2.3" y="51.5" transform="matrix(0.7071 -0.7071 0.7071 0.7071 -34.7519 23.5445)" class="st5" width="26.6" height="4.4"/>
</svg>
