<?xml version="1.0" encoding="utf-8"?>
<!-- Generator: Adobe Illustrator 28.0.0, SVG Export Plug-In . SVG Version: 6.00 Build 0)  -->
<svg version="1.0" id="Camada_1" xmlns="http://www.w3.org/2000/svg" xmlns:xlink="http://www.w3.org/1999/xlink" x="0px" y="0px"
	 viewBox="0 0 104 38" style="enable-background:new 0 0 104 38;" xml:space="preserve">
<style type="text/css">
	.st0{fill:#131313;}
</style>
<g>
	<polygon class="st0" points="29.4,5.9 25,26.1 18,26.1 15.3,13.9 12.9,26.1 6,26.1 1,5.9 5.7,5.9 9.4,22.4 10.2,22.4 13,6.7 
		17.7,6.7 21,22.4 21.7,22.4 25,5.9 	"/>
	<path class="st0" d="M45.6,18.2c0-1.4-0.3-2.7-0.9-3.8c-0.6-1.2-1.4-2.1-2.5-2.8c-1.1-0.7-2.5-1.1-4.1-1.1c-1.2,0-2.3,0.2-3.3,0.6
		c-1,0.4-1.8,1-2.4,1.8c-0.7,0.7-1.2,1.6-1.5,2.5c-0.3,0.9-0.5,1.9-0.5,2.9v0.5c0,1,0.2,1.9,0.5,2.9c0.3,0.9,0.8,1.8,1.5,2.5
		c0.7,0.8,1.5,1.3,2.5,1.8c1,0.5,2.1,0.7,3.4,0.7c1.3,0,2.4-0.2,3.4-0.7c1-0.5,1.8-1.1,2.4-1.9c0.7-0.8,1.1-1.7,1.3-2.7h-4.1
		c-0.2,0.5-0.5,0.8-1,1.1c-0.5,0.3-1.2,0.5-2,0.5c-0.9,0-1.6-0.2-2.1-0.6c-0.6-0.4-1-0.9-1.2-1.6c-0.1-0.4-0.2-0.8-0.3-1.2h11V18.2z
		 M34.6,17.2c0.1-0.4,0.2-0.8,0.3-1.1c0.3-0.7,0.7-1.2,1.2-1.5c0.5-0.3,1.2-0.5,1.9-0.5c0.8,0,1.4,0.2,1.9,0.5
		c0.5,0.3,0.9,0.8,1.1,1.5c0.1,0.3,0.2,0.7,0.3,1.2H34.6z"/>
	<path class="st0" d="M54.2,26.6c-2.2,0-3.8-0.4-5-1.3c-1.2-0.9-1.9-2.1-1.9-3.7h3.9c0.1,0.5,0.4,0.9,0.9,1.3
		c0.5,0.4,1.3,0.6,2.3,0.6c0.8,0,1.4-0.1,1.9-0.4c0.5-0.3,0.8-0.6,0.8-1.1c0-0.4-0.2-0.8-0.6-1.1c-0.4-0.3-1.1-0.4-2.1-0.5l-1.2-0.1
		c-1.8-0.2-3.2-0.7-4.1-1.5c-0.9-0.8-1.4-1.9-1.4-3.2c0-1.1,0.3-2,0.8-2.7c0.5-0.7,1.3-1.3,2.2-1.6c0.9-0.4,2-0.6,3.2-0.6
		c1.9,0,3.5,0.4,4.7,1.3c1.2,0.9,1.8,2.1,1.9,3.7h-3.9c-0.1-0.5-0.3-0.9-0.8-1.2c-0.5-0.3-1.1-0.5-1.9-0.5c-0.7,0-1.2,0.1-1.6,0.4
		s-0.6,0.6-0.6,1c0,0.4,0.2,0.7,0.5,1c0.3,0.2,0.9,0.4,1.7,0.5l1.2,0.1c1.9,0.2,3.3,0.7,4.3,1.5c1,0.8,1.5,1.9,1.5,3.3
		c0,1-0.3,1.9-0.8,2.6c-0.6,0.7-1.3,1.3-2.3,1.7C56.8,26.4,55.6,26.6,54.2,26.6z"/>
	<polygon class="st0" points="68.5,5.9 68.5,26.1 64,26.1 64,9.2 62.2,9.2 62.2,5.9 	"/>
	<path class="st0" d="M86.8,18.2c0-1.4-0.3-2.7-0.9-3.8c-0.6-1.2-1.4-2.1-2.5-2.8c-1.1-0.7-2.5-1.1-4.1-1.1c-1.2,0-2.3,0.2-3.3,0.6
		c-1,0.4-1.8,1-2.4,1.8c-0.7,0.7-1.2,1.6-1.5,2.5c-0.3,0.9-0.5,1.9-0.5,2.9v0.5c0,1,0.2,1.9,0.5,2.9c0.3,0.9,0.8,1.8,1.5,2.5
		c0.7,0.8,1.5,1.3,2.5,1.8c1,0.5,2.1,0.7,3.4,0.7c1.3,0,2.4-0.2,3.4-0.7c1-0.5,1.8-1.1,2.4-1.9c0.7-0.8,1.1-1.7,1.3-2.7h-4.1
		c-0.2,0.5-0.5,0.8-1.1,1.1c-0.5,0.3-1.2,0.5-2,0.5c-0.9,0-1.6-0.2-2.1-0.6s-1-0.9-1.2-1.6c-0.1-0.4-0.2-0.8-0.3-1.2h11V18.2z
		 M75.8,17.2c0.1-0.4,0.2-0.8,0.3-1.1c0.3-0.7,0.7-1.2,1.2-1.5c0.5-0.3,1.2-0.5,2-0.5c0.8,0,1.4,0.2,1.9,0.5
		c0.5,0.3,0.9,0.8,1.1,1.5c0.1,0.3,0.2,0.7,0.3,1.2H75.8z"/>
	<path class="st0" d="M95.5,22.3l0.3,1l0.2-1H95.5z"/>
	<path class="st0" d="M103,11l-4.2,16.3c-0.3,1.2-0.7,2.1-1.2,2.8c-0.5,0.7-1.2,1.2-2.1,1.5c-0.9,0.3-2,0.4-3.3,0.4h-2.7v-3.8h3.1
		c0.5,0,0.9-0.1,1.2-0.2c0.3-0.1,0.6-0.3,0.8-0.6c0.2-0.3,0.4-0.7,0.5-1.1l0.2-0.7h-2.9L87.7,11h4.5l3.4,11.3l0.3,1l0.2-1L98.8,11
		H103z"/>
</g>
</svg>
